<svg width="120" height="46" viewBox="0 0 120 46" fill="none" xmlns="http://www.w3.org/2000/svg"><path d="M119.682 33.015V7.46c0-3.875-3.221-6.474-6.405-6.474H0v32.03h119.682z" fill="#00448C"/><path d="M0 38.535c0 4.314 3.604 6.48 6.43 6.48h113.259V34.334H0v4.2z" fill="#2A96CF"/><path d="M119.682 33.015H0v1.325h119.682v-1.325zM87.407 20.005c0 .71.358 1.017 1.023 1.017h7.31v1.319h-7.805c-2.82 0-4.176-.967-4.176-2.99v-7.685h3.648v8.339zM65.04 11.402v-.452c-3.818 0-6.43 1.733-9.117 4.245-1.218-1.055-2.148-1.871-2.399-2.085-1.262-1.099-1.394-1.444-3.196-1.444h-3.04c3.053 2.669 5.1 4.47 6.525 5.714-2.606 2.606-6.078 6.618-9.639 6.43v.377c3.19.295 6.7-1.068 11.083-5.545 1.64 1.438 1.915 1.67 2.543 2.18 1.733 1.406 1.463 1.519 3.422 1.519h2.914s-3.805-3.31-6.87-5.966c2.066-2.323 4.785-4.973 7.768-4.973M33.318 16.118c.082-2.901.86-3.441 2.637-3.441h2.23c1.776 0 2.555.54 2.636 3.44h-7.503zm11.296 1.218c0-.157.007-.32.007-.49 0-4.552-3.26-5.438-7.435-5.438h-.34c-3.32 0-7.34.886-7.34 5.438s3.335 5.494 5.482 5.494h8.678v-1.306h-7.717c-2.349 0-2.606-.904-2.637-3.704h11.296l.006.006zM69.568 16.118c.075-2.901.854-3.441 2.63-3.441h2.23c1.777 0 2.556.54 2.637 3.44h-7.497zm11.29 1.218c.013-.157.013-.32.013-.49 0-4.552-3.266-5.438-7.435-5.438h-.333c-3.328 0-7.347.886-7.347 5.438s3.328 5.494 5.482 5.494h8.684v-1.306H72.2c-2.349 0-2.606-.904-2.631-3.704h11.29v.006zM23.905 17.826c1.52-.458 2.399-1.488 2.399-3.159 0-2.436-2.06-3.001-4.283-3.001H11.968v10.675h3.686v-4.076h4.54c1.576 0 2.575.126 2.575 4.076h3.698c0-2.48-1.042-3.812-2.568-4.515m-8.251-4.992h5.538c1.922 0 1.714 4.195-.282 4.195h-5.256v-4.195z" fill="#fff"/></svg>
